<?xml version="1.0" encoding="UTF-8" standalone="no"?><!-- Generator: Gravit.io --><svg xmlns="http://www.w3.org/2000/svg" xmlns:xlink="http://www.w3.org/1999/xlink" style="isolation:isolate" viewBox="0 0 150 150" width="150pt" height="150pt"><defs><clipPath id="_clipPath_SusThDLGJEVKSwHbLQ7hZNmsbljSq5GP"><rect width="150" height="150"/></clipPath></defs><g clip-path="url(#_clipPath_SusThDLGJEVKSwHbLQ7hZNmsbljSq5GP)"><clipPath id="_clipPath_avYf4SMEli2Fa424ovgKxl4nSYl6UoDU"><rect x="0" y="0" width="150" height="150" transform="matrix(1,0,0,1,0,0)" fill="rgb(255,255,255)"/></clipPath><g clip-path="url(#_clipPath_avYf4SMEli2Fa424ovgKxl4nSYl6UoDU)"><g><g><g><path d=" M 25 108.548 L 29.212 108.548 C 30.166 108.548 30.889 108.603 31.388 108.718 C 32.056 108.87 32.633 109.144 33.107 109.539 C 33.588 109.928 33.952 110.408 34.201 110.973 C 34.451 111.544 34.572 112.243 34.572 113.076 C 34.572 113.805 34.457 114.431 34.22 114.966 C 33.934 115.61 33.527 116.133 32.998 116.534 C 32.597 116.838 32.056 117.069 31.381 117.239 C 30.871 117.367 30.19 117.427 29.339 117.427 L 25 117.427 L 25 108.548 L 25 108.548 Z  M 27.316 110.049 L 27.316 115.926 L 29.035 115.926 C 29.674 115.926 30.142 115.902 30.427 115.841 C 30.798 115.774 31.108 115.647 31.357 115.476 C 31.6 115.3 31.801 115.015 31.959 114.62 C 32.117 114.218 32.19 113.678 32.19 112.991 C 32.19 112.304 32.117 111.781 31.959 111.411 C 31.801 111.046 31.582 110.76 31.302 110.554 C 31.023 110.347 30.67 110.207 30.239 110.134 C 29.917 110.08 29.285 110.049 28.349 110.049 L 27.316 110.049 L 27.316 110.049 Z  M 38.115 117.427 L 35.423 108.548 L 37.805 108.548 L 39.507 114.65 L 41.598 108.548 L 44.351 108.548 L 46.35 114.753 L 48.095 108.548 L 50.422 108.548 L 47.663 117.427 L 45.184 117.427 L 42.929 110.791 L 40.656 117.427 L 38.115 117.427 L 38.115 117.427 Z  M 61.064 117.427 L 58.566 117.427 L 57.576 115.41 L 52.987 115.41 L 52.033 117.427 L 49.584 117.427 L 54.026 108.548 L 56.476 108.548 L 61.064 117.427 L 61.064 117.427 Z  M 56.822 113.908 L 55.236 110.621 L 53.686 113.908 L 56.822 113.908 L 56.822 113.908 Z  M 66.109 117.427 L 66.109 108.548 L 69.585 108.548 L 71.633 114.607 L 73.663 108.548 L 77.139 108.548 L 77.139 117.427 L 75 117.427 L 74.994 110.438 L 72.733 117.427 L 70.509 117.427 L 68.26 110.438 L 68.254 117.427 L 66.109 117.427 L 66.109 117.427 Z  M 79.382 117.427 L 79.382 108.548 L 81.697 108.548 L 81.697 117.427 L 79.382 117.427 L 79.382 117.427 Z  M 94.211 117.427 L 91.713 117.427 L 90.729 115.41 L 86.134 115.41 L 85.186 117.427 L 82.737 117.427 L 87.179 108.548 L 89.629 108.548 L 94.211 117.427 L 94.211 117.427 Z  M 89.975 113.908 L 88.383 110.621 L 86.839 113.908 L 89.975 113.908 L 89.975 113.908 Z  M 94.837 114.553 L 97.092 114.376 C 97.232 114.966 97.499 115.391 97.912 115.665 C 98.326 115.938 98.885 116.078 99.584 116.078 C 100.325 116.078 100.884 115.957 101.261 115.714 C 101.638 115.47 101.826 115.185 101.826 114.857 C 101.826 114.644 101.747 114.468 101.589 114.316 C 101.431 114.17 101.152 114.042 100.757 113.933 C 100.489 113.86 99.875 113.732 98.921 113.55 C 97.687 113.307 96.818 113.015 96.32 112.663 C 95.621 112.176 95.269 111.575 95.269 110.87 C 95.269 110.42 95.439 109.995 95.761 109.599 C 96.095 109.204 96.569 108.901 97.189 108.694 C 97.809 108.487 98.557 108.384 99.438 108.384 C 100.866 108.384 101.948 108.633 102.665 109.125 C 103.394 109.624 103.771 110.28 103.808 111.101 L 101.492 111.167 C 101.389 110.706 101.182 110.377 100.86 110.177 C 100.538 109.976 100.052 109.873 99.407 109.873 C 98.739 109.873 98.216 109.982 97.839 110.195 C 97.602 110.335 97.475 110.523 97.475 110.754 C 97.475 110.961 97.59 111.143 97.821 111.289 C 98.113 111.484 98.818 111.684 99.936 111.891 C 101.061 112.091 101.887 112.31 102.422 112.529 C 102.963 112.748 103.382 113.052 103.686 113.428 C 103.99 113.811 104.142 114.285 104.142 114.844 C 104.142 115.355 103.96 115.829 103.595 116.279 C 103.23 116.722 102.72 117.051 102.051 117.263 C 101.383 117.482 100.556 117.591 99.559 117.591 C 98.113 117.591 97.001 117.33 96.229 116.814 C 95.451 116.297 94.989 115.543 94.837 114.553 Z  M 108.682 117.427 L 108.682 110.049 L 105.297 110.049 L 105.297 108.548 L 114.376 108.548 L 114.376 110.049 L 111.003 110.049 L 111.003 117.427 L 108.682 117.427 L 108.682 117.427 Z  M 125 117.427 L 122.502 117.427 L 121.518 115.41 L 116.923 115.41 L 115.975 117.427 L 113.52 117.427 L 117.968 108.548 L 120.418 108.548 L 125 117.427 L 125 117.427 Z  M 120.764 113.908 L 119.172 110.621 L 117.628 113.908 L 120.764 113.908 L 120.764 113.908 Z " fill="rgb(255,255,255)"/><path d=" M 86.213 98.289 L 86.213 80.391 C 86.213 78.501 87.678 78.665 87.921 76.149 C 88.091 74.417 88.51 66.674 88.51 66.674 C 88.51 66.674 88.273 66.637 88.273 66.279 C 88.273 65.926 88.504 65.847 88.504 65.47 L 88.504 64.522 C 88.2 64.455 88.115 64.419 88.115 64.419 C 88.115 64.419 88.219 63.653 88.589 63.708 C 88.96 63.757 89.799 63.878 89.799 63.878 C 89.799 63.878 90.631 63.994 91.008 64.048 C 91.379 64.103 91.482 64.899 91.482 64.899 C 91.482 64.899 91.397 64.911 91.093 64.887 L 91.093 65.835 C 91.093 66.212 91.324 66.358 91.324 66.71 C 91.324 67.069 91.087 67.038 91.087 67.038 C 91.087 67.038 91.507 74.897 91.677 76.683 C 91.914 79.266 93.379 79.51 93.379 81.406 L 93.379 96.855 L 86.213 98.32 L 86.213 98.289 L 86.213 98.289 Z  M 60.687 46.873 L 60.687 38.893 L 54.209 41.391 L 54.209 48.575 C 53.255 48.824 52.513 49.073 51.413 49.31 L 51 49.426 L 51 42.789 L 44.515 45.293 L 44.515 51.121 L 41.659 51.869 L 41.549 44.782 L 37.732 46.271 C 37.483 46.381 37.234 46.49 36.985 46.6 C 36.736 46.703 36.487 46.812 36.237 46.922 C 36.237 48.502 36.237 50.088 36.237 51.668 C 36.237 53.248 36.237 54.829 36.237 56.409 C 36.487 56.755 36.736 57.102 36.985 57.448 C 37.234 57.794 37.483 58.141 37.732 58.487 L 37.732 86.955 L 47.973 91.294 L 47.523 85.441 C 47.414 83.995 47.299 82.548 47.189 81.102 C 46.733 80.95 46.393 80.348 46.393 79.637 C 46.393 79.042 46.63 78.525 46.97 78.276 L 46.594 73.365 C 48.496 72.988 50.404 72.605 52.306 72.229 C 54.209 71.846 56.111 71.469 58.013 71.086 C 57.922 72.964 57.825 74.842 57.728 76.72 C 58.117 76.933 58.396 77.486 58.396 78.13 C 58.396 78.847 58.05 79.455 57.582 79.601 L 57.387 83.472 L 56.798 95.038 L 71.499 101.267 L 71.396 52.471 L 105.795 60.736 L 108.518 57.491 L 108.518 57.284 L 72.842 48.715 L 72.198 49.948 C 72.423 49.48 72.642 49.018 72.861 48.557 C 72.861 45.864 72.861 43.172 72.861 40.486 C 72.861 37.793 72.861 35.101 72.861 32.409 C 70.059 33.387 66.814 34.925 64.012 35.909 L 64.012 46.113 L 61.076 46.77 L 60.687 46.873 L 60.687 46.873 Z  M 98.162 50.665 L 98.162 42.698 L 103.406 41.713 L 103.406 52.404 L 98.162 50.665 L 98.162 50.665 Z  M 94.156 49.815 L 93.494 49.93 L 89.799 48.988 L 89.799 42.455 L 94.156 41.713 L 94.156 49.815 L 94.156 49.815 Z  M 80.992 46.758 L 80.992 39.793 L 85.356 38.96 L 85.356 47.803 L 80.992 46.758 L 80.992 46.758 Z " fill="rgb(255,255,255)"/></g></g></g></g></g></svg>